PathFileType	4	(X/Y/Z)	/Users/mathieubourgeois/Desktop/Analyse/Traitement/Sujet_06/Transformed_Static_Sujet_06_Tpose.trc
DataRate	CameraRate	NumFrames	NumMarkers	Units	OrigDataRate	OrigDataStartFrame	OrigNumFrames
120.000000	120.000000	6	36	mm	120.000000	31	252
Frame#	Time	RFHD			RANE			STRN			LANI			LKNE			T10			RHUM			RWRB			C7			LFWT			LTOE			RTOE			LWRA			LBWT			RBWT			RFWT			LKNI			RKNI			RKNE			LANE			RANI			LHEE			RHEE			LHUM			LRAD			RRAD			RWRA			LWRB			LFHD			LBHD			RBHD			RSHO			LSHO			CLAV			LCAR			RCAR			
		X1	Y1	Z1	X2	Y2	Z2	X3	Y3	Z3	X4	Y4	Z4	X5	Y5	Z5	X6	Y6	Z6	X7	Y7	Z7	X8	Y8	Z8	X9	Y9	Z9	X10	Y10	Z10	X11	Y11	Z11	X12	Y12	Z12	X13	Y13	Z13	X14	Y14	Z14	X15	Y15	Z15	X16	Y16	Z16	X17	Y17	Z17	X18	Y18	Z18	X19	Y19	Z19	X20	Y20	Z20	X21	Y21	Z21	X22	Y22	Z22	X23	Y23	Z23	X24	Y24	Z24	X25	Y25	Z25	X26	Y26	Z26	X27	Y27	Z27	X28	Y28	Z28	X29	Y29	Z29	X30	Y30	Z30	X31	Y31	Z31	X32	Y32	Z32	X33	Y33	Z33	X34	Y34	Z34	X35	Y35	Z35	X36	Y36	Z36	

32	0.2583333333333333	-888.0621948242188	1639.06103515625	311.4211730957029	-959.0208129882812	75.30346679687501	216.4048919677733	-815.7244873046875	1234.64111328125	354.5237731933592	-764.1098022460938	77.50207519531251	223.7669219970702	-676.0941162109375	481.9240112304688	236.7729644775389	-821.3746337890625	1210.415649414062	153.2167510986326	-1265.649536132812	1407.857055664062	192.1916351318357	-1490.692626953125	1479.813354492188	200.6442413330076	-820.7991333007812	1452.39013671875	195.055465698242	-704.08544921875	985.1865234375	328.6317749023436	-697.3469848632812	37.48582458496096	392.5013427734374	-918.3355712890625	38.53873443603518	399.5700683593749	-124.2405090332031	1347.066528320312	119.4470825195312	-764.7433471679688	1010.554931640625	174.0699462890624	-871.5250854492188	1011.667419433594	181.1873779296873	-918.2169799804688	988.4244995117188	337.9368286132811	-770.1683959960938	435.695556640625	231.8965759277343	-868.731201171875	442.0852661132812	219.0031280517577	-963.7664184570312	492.2066955566406	230.7262420654295	-683.384765625	69.05148315429689	202.5187225341796	-878.203857421875	83.72145843505861	226.8296051025389	-724.7083129882812	51.94893264770509	154.4097137451171	-923.1534423828125	53.87227630615235	162.3912658691405	-373.0217895507812	1362.378295898438	150.0702362060545	-365.6734924316406	1318.4072265625	196.0232543945311	-1264.528686523438	1369.965209960938	246.4902496337888	-1503.487426757812	1423.962768554688	180.4565277099607	-129.0777893066407	1407.503051757812	116.0982971191405	-742.457275390625	1643.430419921875	310.1849365234373	-742.9113159179688	1577.508544921875	174.0135345458983	-871.6493530273438	1578.542846679688	158.6611938476561	-959.035888671875	1447.497436523438	228.8414459228514	-669.557373046875	1435.111450195312	216.9506225585936	-813.7737426757812	1386.770629882812	314.1671447753905	-41.85677719116212	1388.253173828125	97.0351028442382	-1597.5283203125	1463.757446289062	159.068923950195	
33	0.2666666666666667	-887.9843139648438	1639.098754882812	311.4078979492185	-959.0150146484375	75.30912017822267	216.4043731689452	-815.68359375	1234.631591796875	354.5462951660155	-764.1232299804688	77.49280548095705	223.7668914794921	-676.0785522460938	481.9120788574219	236.7710876464843	-821.3499145507812	1210.411865234375	153.2514953613279	-1265.609985351562	1407.868041992188	192.1962585449216	-1490.644409179688	1479.850952148438	200.6302642822263	-820.7535400390625	1452.379516601562	195.0945587158201	-704.0365600585938	985.1934814453125	328.6693420410155	-697.3428344726562	37.48258590698244	392.4979553222655	-918.338134765625	38.53678131103518	399.5737915039061	-124.2124862670899	1346.993530273438	119.4770584106444	-764.7343139648438	1010.542114257812	174.0936431884764	-871.4848022460938	1011.65185546875	181.2473907470701	-918.1853637695312	988.4210815429688	337.9920654296873	-770.1594848632812	435.6983642578125	231.9251861572264	-868.7173461914062	442.0828552246094	219.0236663818358	-963.741455078125	492.204833984375	230.7480621337889	-683.3858642578125	69.0496292114258	202.5330963134765	-878.2075805664062	83.71359252929689	226.8455963134764	-724.72021484375	51.94648361206055	154.4117584228515	-923.15283203125	53.88320541381837	162.3968353271483	-372.9885559082031	1362.33984375	150.1216888427733	-365.6436157226562	1318.362670898438	196.0633697509764	-1264.486450195312	1369.975830078125	246.4907073974607	-1503.446166992188	1424.00390625	180.4406280517576	-129.0372009277344	1407.423950195312	116.1238250732421	-742.387939453125	1643.438354492188	310.1367492675779	-742.8682250976562	1577.455444335938	174.0107574462889	-871.6031494140625	1578.497192382812	158.6816558837889	-958.9860229492188	1447.497192382812	228.8610076904295	-669.5062866210938	1435.098510742188	216.9885864257811	-813.738525390625	1386.760375976562	314.2012329101561	-41.81501388549806	1388.149658203125	97.06851196289054	-1597.469604492188	1463.803344726562	159.0267791748044	
34	0.275	-887.9169311523438	1639.126098632812	311.3988952636716	-959.0161743164062	75.3015594482422	216.4030761718749	-815.6535034179688	1234.612548828125	354.5744018554686	-764.1246948242188	77.50064849853517	223.7657012939452	-676.069091796875	481.9038696289062	236.7938842773436	-821.3248291015625	1210.421020507812	153.2705230712889	-1265.564086914062	1407.86865234375	192.183883666992	-1490.58544921875	1479.883911132812	200.6078033447263	-820.7081909179688	1452.378784179688	195.1149749755857	-704.0032348632812	985.1774291992188	328.7047119140623	-697.3446655273438	37.48649978637697	392.4976196289061	-918.3264770507812	38.53398132324221	399.5779724121093	-124.1783981323242	1346.91748046875	119.5016555786132	-764.702880859375	1010.529663085938	174.1218414306639	-871.4574584960938	1011.649780273438	181.2672119140623	-918.1492919921875	988.41455078125	338.009796142578	-770.1375732421875	435.7042236328125	231.9327087402343	-868.6922607421875	442.0938720703125	219.042526245117	-963.717529296875	492.1969604492188	230.7686462402342	-683.3822021484375	69.03999328613283	202.5172882080077	-878.1970825195312	83.70155334472658	226.8472747802733	-724.7144165039062	51.94826126098634	154.3965454101562	-923.1513061523438	53.88584899902344	162.3975830078124	-372.9531860351562	1362.301879882812	150.142608642578	-365.5998229980469	1318.314575195312	196.0910186767577	-1264.454345703125	1369.980712890625	246.4839782714841	-1503.4013671875	1424.028076171875	180.4259033203122	-128.9967346191407	1407.348388671875	116.1482391357421	-742.324951171875	1643.449829101562	310.1141052246091	-742.8193359375	1577.409057617188	174.001754760742	-871.5565185546875	1578.469360351562	158.6949768066404	-958.9519653320312	1447.502563476562	228.8907165527342	-669.4719848632812	1435.086059570312	217.0305328369139	-813.6964111328125	1386.750854492188	314.2606506347655	-41.77264404296876	1388.040771484375	97.10091400146476	-1597.419921875	1463.85009765625	158.997863769531	
35	0.2833333333333333	-887.855712890625	1639.155029296875	311.385314941406	-959.0147705078125	75.30274963378908	216.3992614746093	-815.6119995117188	1234.603149414062	354.5970153808592	-764.1197509765625	77.49671173095705	223.7640228271484	-676.0322265625	481.9007263183594	236.7987365722655	-821.2855224609375	1210.411254882812	153.3061065673826	-1265.513305664062	1407.884033203125	192.1936950683591	-1490.542236328125	1479.901977539062	200.5708923339841	-820.6542358398438	1452.367431640625	195.1469268798826	-703.955322265625	985.1802368164062	328.7254638671873	-697.3380126953125	37.47776794433596	392.4987792968749	-918.322998046875	38.53702926635744	399.5738220214843	-124.1438980102539	1346.84716796875	119.5174179077147	-764.6559448242188	1010.531982421875	174.1525878906249	-871.4178466796875	1011.633850097656	181.3047637939451	-918.1174926757812	988.4240112304688	338.0469360351561	-770.1177368164062	435.6986083984375	231.9612731933593	-868.66943359375	442.0765380859375	219.0550384521483	-963.69482421875	492.2036437988281	230.8005065917967	-683.388427734375	69.0337371826172	202.5085296630859	-878.19677734375	83.69636535644533	226.8563537597655	-724.7142333984375	51.9514389038086	154.4112396240234	-923.1473388671875	53.8811264038086	162.3879852294921	-372.9115295410156	1362.25537109375	150.1768188476561	-365.5716857910156	1318.275756835938	196.1511993408202	-1264.408935546875	1370.004272460938	246.5051116943357	-1503.340087890625	1424.059448242188	180.3923339843747	-128.9455871582032	1407.274658203125	116.1862030029296	-742.2575073242188	1643.457275390625	310.0726013183591	-742.7745971679688	1577.372802734375	174.0058135986326	-871.5194702148438	1578.432006835938	158.7150268554686	-958.9005737304688	1447.502197265625	228.9394683837889	-669.42333984375	1435.0751953125	217.0723266601561	-813.6365356445312	1386.73681640625	314.3249511718748	-41.73491668701173	1387.963745117188	97.11685943603507	-1597.35595703125	1463.870361328125	158.9459838867185	
36	0.2916666666666667	-887.790771484375	1639.189575195312	311.4120178222654	-959.005859375	75.30971527099611	216.4041900634764	-815.5803833007812	1234.589233398438	354.5837402343748	-764.1209716796875	77.48606872558595	223.7568817138671	-676.0009155273438	481.8898010253906	236.8257751464843	-821.2535400390625	1210.400512695312	153.3221130371092	-1265.462768554688	1407.883056640625	192.185836791992	-1490.482055664062	1479.932250976562	200.5615692138669	-820.621337890625	1452.369384765625	195.1828308105467	-703.919677734375	985.1871948242188	328.7459716796873	-697.3582763671875	37.48328781127932	392.5087890624999	-918.3363647460938	38.53615951538088	399.572296142578	-124.1123428344727	1346.77783203125	119.5381622314452	-764.6373901367188	1010.525146484375	174.1740875244139	-871.3942260742188	1011.633239746094	181.3345947265623	-918.0581665039062	988.4218139648438	338.0817565917967	-770.1028442382812	435.6947021484375	231.9890747070311	-868.6487426757812	442.0777282714844	219.0843811035155	-963.6676025390625	492.2061767578125	230.8300933837889	-683.3695068359375	69.02969360351564	202.5131530761718	-878.181396484375	83.69762420654298	226.8257598876952	-724.72021484375	51.96118927001954	154.403839111328	-923.1458129882812	53.88018798828126	162.3864746093749	-372.8945617675781	1362.224853515625	150.2257995605467	-365.5364379882812	1318.245483398438	196.2067413330077	-1264.3603515625	1370.02197265625	246.5320129394529	-1503.282836914062	1424.07373046875	180.3878936767576	-128.9011840820313	1407.192993164062	116.2096023559569	-742.1784057617188	1643.460815429688	310.0520935058591	-742.73388671875	1577.331298828125	174.0137939453123	-871.4854125976562	1578.394775390625	158.7413482666014	-958.8524780273438	1447.500122070312	228.9644775390623	-669.3805541992188	1435.077392578125	217.1056365966795	-813.603759765625	1386.728271484375	314.3973693847655	-41.71144866943361	1387.870971679688	97.12823486328116	-1597.292846679688	1463.898681640625	158.8998107910153	
37	0.3	-887.7258911132812	1639.207763671875	311.4161071777341	-959.0028686523438	75.31736755371095	216.3971710205077	-815.5496215820312	1234.570434570312	354.590362548828	-764.116943359375	77.49722290039064	223.7608337402343	-675.9718017578125	481.8970642089844	236.8510437011718	-821.2188720703125	1210.411499023438	153.3451538085936	-1265.414794921875	1407.891723632812	192.2080841064451	-1490.43017578125	1479.944091796875	200.5423126220701	-820.5738525390625	1452.385498046875	195.2018432617186	-703.885986328125	985.192138671875	328.777618408203	-697.3458251953125	37.49084472656252	392.4995117187499	-918.3322143554688	38.5475769042969	399.5750732421874	-124.0818176269531	1346.715087890625	119.5594863891601	-764.6146850585938	1010.521057128906	174.1823883056639	-871.3465576171875	1011.633728027344	181.3437652587889	-918.0262451171875	988.4410400390625	338.1102600097655	-770.0726928710938	435.6959533691406	231.9969482421874	-868.62939453125	442.0819091796875	219.1190032958983	-963.6431884765625	492.2182922363281	230.8614349365233	-683.3809204101562	69.03305816650392	202.5113372802734	-878.1867065429688	83.70203399658205	226.8516998291014	-724.7236938476562	51.95795440673829	154.4077606201171	-923.1484375	53.88543319702149	162.3854522705077	-372.8463134765625	1362.17919921875	150.2489929199217	-365.5066223144531	1318.199829101562	196.2348480224608	-1264.31689453125	1370.026245117188	246.5249023437498	-1503.225830078125	1424.090087890625	180.3680572509763	-128.8590698242188	1407.118408203125	116.236228942871	-742.119384765625	1643.4794921875	310.0406799316404	-742.6846313476562	1577.306396484375	174.0226135253905	-871.43115234375	1578.371215820312	158.7631988525389	-958.8051147460938	1447.49853515625	228.9856872558592	-669.3428955078125	1435.08349609375	217.1442871093748	-813.5447998046875	1386.728637695312	314.4489440917967	-41.68411254882814	1387.802490234375	97.13339233398429	-1597.225219726562	1463.904296875	158.8831939697263	
